<svg xmlns="http://www.w3.org/2000/svg" viewBox="0 0 600 450" width="600" height="450" role="img" aria-labelledby="t">
<title id="t">Chicken wings</title>
<rect width="600" height="450" fill="#F1E2CB"/>
<circle cx="300" cy="215" r="205" fill="#FBF1E0" opacity=".55"/>
<circle cx="70" cy="70" r="5" fill="#FBF1E0" opacity=".7"/><circle cx="540" cy="90" r="7" fill="#FBF1E0" opacity=".7"/><circle cx="520" cy="380" r="5" fill="#FBF1E0" opacity=".7"/><circle cx="60" cy="370" r="6" fill="#FBF1E0" opacity=".7"/>
<g transform="translate(300 285) scale(1.16) translate(-300 -285)">
<ellipse cx="300" cy="308" rx="236" ry="82" fill="#2E2A27" opacity=".12"/><ellipse cx="300" cy="292" rx="230" ry="82" fill="#FFF9EC" /><ellipse cx="300" cy="296" rx="192" ry="56" fill="#F3E8D2" /><ellipse cx="300" cy="292" rx="230" ry="82" fill="none" stroke="#EBDDC3" stroke-width="3"/><g transform="translate(210 270) rotate(-15)"><path d="M-70 10 Q-80 -30 -30 -34 Q30 -44 70 -14 Q86 -4 64 12 Q28 34 -20 30 Q-64 34 -70 10 Z" fill="#D49665" /><path d="M-58 8 Q-64 -20 -26 -24 Q28 -32 58 -10 Q68 -2 54 8 Q26 24 -18 22 Q-52 24 -58 8 Z" fill="#EFC196" /><circle cx="-76" cy="12" r="12" fill="#EFC196" /><path d="M-20 -14 Q10 -22 40 -8" fill="none" stroke="#FFFFFF" stroke-width="4" stroke-linecap="round" stroke-linejoin="round" opacity=".5"/></g><g transform="translate(390 268) rotate(15)"><path d="M-70 10 Q-80 -30 -30 -34 Q30 -44 70 -14 Q86 -4 64 12 Q28 34 -20 30 Q-64 34 -70 10 Z" fill="#D49665" /><path d="M-58 8 Q-64 -20 -26 -24 Q28 -32 58 -10 Q68 -2 54 8 Q26 24 -18 22 Q-52 24 -58 8 Z" fill="#EFC196" /><circle cx="-76" cy="12" r="12" fill="#EFC196" /><path d="M-20 -14 Q10 -22 40 -8" fill="none" stroke="#FFFFFF" stroke-width="4" stroke-linecap="round" stroke-linejoin="round" opacity=".5"/></g><g transform="translate(300 315) rotate(3)"><path d="M-70 10 Q-80 -30 -30 -34 Q30 -44 70 -14 Q86 -4 64 12 Q28 34 -20 30 Q-64 34 -70 10 Z" fill="#D49665" /><path d="M-58 8 Q-64 -20 -26 -24 Q28 -32 58 -10 Q68 -2 54 8 Q26 24 -18 22 Q-52 24 -58 8 Z" fill="#EFC196" /><circle cx="-76" cy="12" r="12" fill="#EFC196" /><path d="M-20 -14 Q10 -22 40 -8" fill="none" stroke="#FFFFFF" stroke-width="4" stroke-linecap="round" stroke-linejoin="round" opacity=".5"/></g><g transform="translate(300 245) rotate(-3)"><path d="M-70 10 Q-80 -30 -30 -34 Q30 -44 70 -14 Q86 -4 64 12 Q28 34 -20 30 Q-64 34 -70 10 Z" fill="#D49665" /><path d="M-58 8 Q-64 -20 -26 -24 Q28 -32 58 -10 Q68 -2 54 8 Q26 24 -18 22 Q-52 24 -58 8 Z" fill="#EFC196" /><circle cx="-76" cy="12" r="12" fill="#EFC196" /><path d="M-20 -14 Q10 -22 40 -8" fill="none" stroke="#FFFFFF" stroke-width="4" stroke-linecap="round" stroke-linejoin="round" opacity=".5"/></g><g transform="translate(505 330) rotate(25) scale(0.85)"><path d="M0 8 L0 -66" fill="none" stroke="#3F6B34" stroke-width="3" stroke-linecap="round" stroke-linejoin="round" /><ellipse cx="-9" cy="0" rx="11" ry="4.5" fill="#5C8A47" transform="rotate(-30 -9 0)"/><ellipse cx="9" cy="-6" rx="11" ry="4.5" fill="#3F6B34" transform="rotate(30 9 -6)"/><ellipse cx="-9" cy="-14" rx="11" ry="4.5" fill="#5C8A47" transform="rotate(-30 -9 -14)"/><ellipse cx="9" cy="-20" rx="11" ry="4.5" fill="#3F6B34" transform="rotate(30 9 -20)"/><ellipse cx="-9" cy="-28" rx="11" ry="4.5" fill="#5C8A47" transform="rotate(-30 -9 -28)"/><ellipse cx="9" cy="-34" rx="11" ry="4.5" fill="#3F6B34" transform="rotate(30 9 -34)"/><ellipse cx="-9" cy="-42" rx="11" ry="4.5" fill="#5C8A47" transform="rotate(-30 -9 -42)"/><ellipse cx="9" cy="-48" rx="11" ry="4.5" fill="#3F6B34" transform="rotate(30 9 -48)"/><ellipse cx="-9" cy="-56" rx="11" ry="4.5" fill="#5C8A47" transform="rotate(-30 -9 -56)"/><ellipse cx="9" cy="-62" rx="11" ry="4.5" fill="#3F6B34" transform="rotate(30 9 -62)"/></g><g transform="translate(100 330) rotate(-25) scale(0.8)"><path d="M0 8 L0 -66" fill="none" stroke="#3F6B34" stroke-width="3" stroke-linecap="round" stroke-linejoin="round" /><ellipse cx="-9" cy="0" rx="11" ry="4.5" fill="#5C8A47" transform="rotate(-30 -9 0)"/><ellipse cx="9" cy="-6" rx="11" ry="4.5" fill="#3F6B34" transform="rotate(30 9 -6)"/><ellipse cx="-9" cy="-14" rx="11" ry="4.5" fill="#5C8A47" transform="rotate(-30 -9 -14)"/><ellipse cx="9" cy="-20" rx="11" ry="4.5" fill="#3F6B34" transform="rotate(30 9 -20)"/><ellipse cx="-9" cy="-28" rx="11" ry="4.5" fill="#5C8A47" transform="rotate(-30 -9 -28)"/><ellipse cx="9" cy="-34" rx="11" ry="4.5" fill="#3F6B34" transform="rotate(30 9 -34)"/><ellipse cx="-9" cy="-42" rx="11" ry="4.5" fill="#5C8A47" transform="rotate(-30 -9 -42)"/><ellipse cx="9" cy="-48" rx="11" ry="4.5" fill="#3F6B34" transform="rotate(30 9 -48)"/><ellipse cx="-9" cy="-56" rx="11" ry="4.5" fill="#5C8A47" transform="rotate(-30 -9 -56)"/><ellipse cx="9" cy="-62" rx="11" ry="4.5" fill="#3F6B34" transform="rotate(30 9 -62)"/></g>
</g>
</svg>
