<svg xmlns="http://www.w3.org/2000/svg" viewBox="0 0 600 450" width="600" height="450" role="img" aria-labelledby="t">
<title id="t">Shabbos cholent</title>
<rect width="600" height="450" fill="#EBD9BD"/>
<circle cx="300" cy="215" r="205" fill="#F8ECD3" opacity=".55"/>
<circle cx="70" cy="70" r="5" fill="#F8ECD3" opacity=".7"/><circle cx="540" cy="90" r="7" fill="#F8ECD3" opacity=".7"/><circle cx="520" cy="380" r="5" fill="#F8ECD3" opacity=".7"/><circle cx="60" cy="370" r="6" fill="#F8ECD3" opacity=".7"/>
<g transform="translate(300 285) scale(1.1) translate(-300 -285)">
<ellipse cx="300" cy="372" rx="230" ry="24" fill="#2E2A27" opacity=".14"/><path d="M90 235 L510 235 Q505 345 420 368 L180 368 Q95 345 90 235 Z" fill="#3B3F46" /><path d="M90 235 L510 235 L507 262 L93 262 Z" fill="#4A4F58" /><rect x="70" y="220" width="40" height="20" rx="8" fill="#2F3238" /><rect x="490" y="220" width="40" height="20" rx="8" fill="#2F3238" /><ellipse cx="300" cy="236" rx="210" ry="50" fill="#555B66" /><ellipse cx="300" cy="240" rx="192" ry="40" fill="#7B3E1E" /><ellipse cx="371" cy="257" rx="12" ry="8" fill="#8A3C1E" transform="rotate(115 371 257)"/><ellipse cx="400" cy="234" rx="12" ry="8" fill="#C98B5A" transform="rotate(131 400 234)"/><ellipse cx="383" cy="233" rx="12" ry="8" fill="#A24F2A" transform="rotate(114 383 233)"/><ellipse cx="295" cy="231" rx="12" ry="8" fill="#A24F2A" transform="rotate(137 295 231)"/><ellipse cx="161" cy="247" rx="12" ry="8" fill="#8A3C1E" transform="rotate(167 161 247)"/><ellipse cx="455" cy="232" rx="12" ry="8" fill="#EBD9B0" transform="rotate(3 455 232)"/><ellipse cx="410" cy="226" rx="12" ry="8" fill="#A24F2A" transform="rotate(9 410 226)"/><ellipse cx="237" cy="237" rx="12" ry="8" fill="#EBD9B0" transform="rotate(7 237 237)"/><ellipse cx="377" cy="242" rx="12" ry="8" fill="#8A3C1E" transform="rotate(151 377 242)"/><ellipse cx="240" cy="255" rx="12" ry="8" fill="#C98B5A" transform="rotate(163 240 255)"/><ellipse cx="290" cy="253" rx="12" ry="8" fill="#A24F2A" transform="rotate(169 290 253)"/><ellipse cx="183" cy="251" rx="12" ry="8" fill="#E3C58F" transform="rotate(104 183 251)"/><ellipse cx="422" cy="227" rx="12" ry="8" fill="#E3C58F" transform="rotate(80 422 227)"/><ellipse cx="257" cy="254" rx="12" ry="8" fill="#E3C58F" transform="rotate(7 257 254)"/><ellipse cx="175" cy="258" rx="12" ry="8" fill="#A24F2A" transform="rotate(102 175 258)"/><ellipse cx="195" cy="240" rx="12" ry="8" fill="#8A3C1E" transform="rotate(17 195 240)"/><ellipse cx="148" cy="222" rx="12" ry="8" fill="#C98B5A" transform="rotate(53 148 222)"/><ellipse cx="166" cy="252" rx="12" ry="8" fill="#8A3C1E" transform="rotate(101 166 252)"/><ellipse cx="354" cy="226" rx="12" ry="8" fill="#EBD9B0" transform="rotate(161 354 226)"/><ellipse cx="241" cy="239" rx="12" ry="8" fill="#E3C58F" transform="rotate(22 241 239)"/><ellipse cx="299" cy="243" rx="12" ry="8" fill="#A24F2A" transform="rotate(104 299 243)"/><ellipse cx="200" cy="230" rx="12" ry="8" fill="#C98B5A" transform="rotate(180 200 230)"/><ellipse cx="191" cy="222" rx="12" ry="8" fill="#A24F2A" transform="rotate(119 191 222)"/><ellipse cx="389" cy="233" rx="12" ry="8" fill="#EBD9B0" transform="rotate(48 389 233)"/><ellipse cx="369" cy="254" rx="12" ry="8" fill="#C98B5A" transform="rotate(33 369 254)"/><ellipse cx="354" cy="246" rx="12" ry="8" fill="#A24F2A" transform="rotate(101 354 246)"/><ellipse cx="355" cy="235" rx="12" ry="8" fill="#A24F2A" transform="rotate(69 355 235)"/><ellipse cx="443" cy="241" rx="12" ry="8" fill="#A24F2A" transform="rotate(53 443 241)"/><ellipse cx="235" cy="247" rx="12" ry="8" fill="#EBD9B0" transform="rotate(164 235 247)"/><ellipse cx="435" cy="228" rx="12" ry="8" fill="#A24F2A" transform="rotate(37 435 228)"/><ellipse cx="249" cy="250" rx="12" ry="8" fill="#E3C58F" transform="rotate(2 249 250)"/><ellipse cx="452" cy="243" rx="12" ry="8" fill="#E3C58F" transform="rotate(98 452 243)"/><ellipse cx="177" cy="226" rx="12" ry="8" fill="#A24F2A" transform="rotate(53 177 226)"/><ellipse cx="438" cy="237" rx="12" ry="8" fill="#A24F2A" transform="rotate(153 438 237)"/><ellipse cx="328" cy="245" rx="12" ry="8" fill="#EBD9B0" transform="rotate(116 328 245)"/><ellipse cx="205" cy="252" rx="12" ry="8" fill="#EBD9B0" transform="rotate(34 205 252)"/><rect x="266" y="222" width="52" height="34" rx="10" fill="#5A3320" /><rect x="274" y="226" width="30" height="12" rx="6" fill="#A0683F" /><ellipse cx="215" cy="240" rx="26" ry="18" fill="#F6EFD9" /><ellipse cx="215" cy="240" rx="10" ry="8" fill="#F2B53A" /><ellipse cx="395" cy="244" rx="24" ry="17" fill="#F6EFD9" /><ellipse cx="395" cy="244" rx="9" ry="7" fill="#F2B53A" /><path d="M240 205 Q232 185 244 165 M300 200 Q292 175 304 148 M360 205 Q352 185 364 165" fill="none" stroke="#FFFFFF" stroke-width="7" stroke-linecap="round" stroke-linejoin="round" opacity=".8"/><path d="M105 300 Q300 322 495 300" fill="none" stroke="#2F3238" stroke-width="5" stroke-linecap="round" stroke-linejoin="round" opacity=".6"/>
</g>
</svg>
