<svg xmlns="http://www.w3.org/2000/svg" viewBox="0 0 600 450" width="600" height="450" role="img" aria-labelledby="t">
<title id="t">Lamb chops with rosemary</title>
<rect width="600" height="450" fill="#EFD6D3"/>
<circle cx="300" cy="215" r="205" fill="#F9E9E6" opacity=".55"/>
<circle cx="70" cy="70" r="5" fill="#F9E9E6" opacity=".7"/><circle cx="540" cy="90" r="7" fill="#F9E9E6" opacity=".7"/><circle cx="520" cy="380" r="5" fill="#F9E9E6" opacity=".7"/><circle cx="60" cy="370" r="6" fill="#F9E9E6" opacity=".7"/>
<g transform="translate(300 285) scale(1.16) translate(-300 -285)">
<ellipse cx="300" cy="308" rx="236" ry="82" fill="#2E2A27" opacity=".12"/><ellipse cx="300" cy="292" rx="230" ry="82" fill="#FFF9EC" /><ellipse cx="300" cy="296" rx="192" ry="56" fill="#F3E8D2" /><ellipse cx="300" cy="292" rx="230" ry="82" fill="none" stroke="#EBDDC3" stroke-width="3"/><g transform="translate(190 285) rotate(-12)"><path d="M0 -42 L0 -92" fill="none" stroke="#EBDDC3" stroke-width="17" stroke-linecap="round" stroke-linejoin="round" /><circle cx="0" cy="-94" r="12" fill="#EBDDC3" /><path d="M0 -42 L0 -92" fill="none" stroke="#FFFDF4" stroke-width="12" stroke-linecap="round" stroke-linejoin="round" /><circle cx="0" cy="-94" r="9" fill="#FFFDF4" /><path d="M-52 -34 Q-60 30 -22 44 Q22 56 50 28 Q62 -20 30 -44 Q-10 -56 -52 -34 Z" fill="#F6E7D2" /><path d="M-42 -26 Q-48 24 -18 36 Q20 46 42 22 Q50 -14 26 -34 Q-8 -44 -42 -26 Z" fill="#B8493D" /><path d="M-30 -14 Q-20 -30 10 -28 Q-6 -14 -30 -14 Z" fill="#D4585C" opacity=".6"/><path d="M-24 18 Q0 28 28 10" fill="none" stroke="#8F3030" stroke-width="4" stroke-linecap="round" stroke-linejoin="round" opacity=".5"/></g><g transform="translate(310 295) rotate(4)"><path d="M0 -42 L0 -92" fill="none" stroke="#EBDDC3" stroke-width="17" stroke-linecap="round" stroke-linejoin="round" /><circle cx="0" cy="-94" r="12" fill="#EBDDC3" /><path d="M0 -42 L0 -92" fill="none" stroke="#FFFDF4" stroke-width="12" stroke-linecap="round" stroke-linejoin="round" /><circle cx="0" cy="-94" r="9" fill="#FFFDF4" /><path d="M-52 -34 Q-60 30 -22 44 Q22 56 50 28 Q62 -20 30 -44 Q-10 -56 -52 -34 Z" fill="#F6E7D2" /><path d="M-42 -26 Q-48 24 -18 36 Q20 46 42 22 Q50 -14 26 -34 Q-8 -44 -42 -26 Z" fill="#B8493D" /><path d="M-30 -14 Q-20 -30 10 -28 Q-6 -14 -30 -14 Z" fill="#D4585C" opacity=".6"/><path d="M-24 18 Q0 28 28 10" fill="none" stroke="#8F3030" stroke-width="4" stroke-linecap="round" stroke-linejoin="round" opacity=".5"/></g><g transform="translate(425 285) rotate(14)"><path d="M0 -42 L0 -92" fill="none" stroke="#EBDDC3" stroke-width="17" stroke-linecap="round" stroke-linejoin="round" /><circle cx="0" cy="-94" r="12" fill="#EBDDC3" /><path d="M0 -42 L0 -92" fill="none" stroke="#FFFDF4" stroke-width="12" stroke-linecap="round" stroke-linejoin="round" /><circle cx="0" cy="-94" r="9" fill="#FFFDF4" /><path d="M-52 -34 Q-60 30 -22 44 Q22 56 50 28 Q62 -20 30 -44 Q-10 -56 -52 -34 Z" fill="#F6E7D2" /><path d="M-42 -26 Q-48 24 -18 36 Q20 46 42 22 Q50 -14 26 -34 Q-8 -44 -42 -26 Z" fill="#B8493D" /><path d="M-30 -14 Q-20 -30 10 -28 Q-6 -14 -30 -14 Z" fill="#D4585C" opacity=".6"/><path d="M-24 18 Q0 28 28 10" fill="none" stroke="#8F3030" stroke-width="4" stroke-linecap="round" stroke-linejoin="round" opacity=".5"/></g><g transform="translate(500 335) rotate(25) scale(1)"><path d="M0 8 L0 -66" fill="none" stroke="#3F6B34" stroke-width="3" stroke-linecap="round" stroke-linejoin="round" /><ellipse cx="-9" cy="0" rx="11" ry="4.5" fill="#5C8A47" transform="rotate(-30 -9 0)"/><ellipse cx="9" cy="-6" rx="11" ry="4.5" fill="#3F6B34" transform="rotate(30 9 -6)"/><ellipse cx="-9" cy="-14" rx="11" ry="4.5" fill="#5C8A47" transform="rotate(-30 -9 -14)"/><ellipse cx="9" cy="-20" rx="11" ry="4.5" fill="#3F6B34" transform="rotate(30 9 -20)"/><ellipse cx="-9" cy="-28" rx="11" ry="4.5" fill="#5C8A47" transform="rotate(-30 -9 -28)"/><ellipse cx="9" cy="-34" rx="11" ry="4.5" fill="#3F6B34" transform="rotate(30 9 -34)"/><ellipse cx="-9" cy="-42" rx="11" ry="4.5" fill="#5C8A47" transform="rotate(-30 -9 -42)"/><ellipse cx="9" cy="-48" rx="11" ry="4.5" fill="#3F6B34" transform="rotate(30 9 -48)"/><ellipse cx="-9" cy="-56" rx="11" ry="4.5" fill="#5C8A47" transform="rotate(-30 -9 -56)"/><ellipse cx="9" cy="-62" rx="11" ry="4.5" fill="#3F6B34" transform="rotate(30 9 -62)"/></g><g transform="translate(95 330) rotate(-25) scale(0.9)"><path d="M0 8 L0 -66" fill="none" stroke="#3F6B34" stroke-width="3" stroke-linecap="round" stroke-linejoin="round" /><ellipse cx="-9" cy="0" rx="11" ry="4.5" fill="#5C8A47" transform="rotate(-30 -9 0)"/><ellipse cx="9" cy="-6" rx="11" ry="4.5" fill="#3F6B34" transform="rotate(30 9 -6)"/><ellipse cx="-9" cy="-14" rx="11" ry="4.5" fill="#5C8A47" transform="rotate(-30 -9 -14)"/><ellipse cx="9" cy="-20" rx="11" ry="4.5" fill="#3F6B34" transform="rotate(30 9 -20)"/><ellipse cx="-9" cy="-28" rx="11" ry="4.5" fill="#5C8A47" transform="rotate(-30 -9 -28)"/><ellipse cx="9" cy="-34" rx="11" ry="4.5" fill="#3F6B34" transform="rotate(30 9 -34)"/><ellipse cx="-9" cy="-42" rx="11" ry="4.5" fill="#5C8A47" transform="rotate(-30 -9 -42)"/><ellipse cx="9" cy="-48" rx="11" ry="4.5" fill="#3F6B34" transform="rotate(30 9 -48)"/><ellipse cx="-9" cy="-56" rx="11" ry="4.5" fill="#5C8A47" transform="rotate(-30 -9 -56)"/><ellipse cx="9" cy="-62" rx="11" ry="4.5" fill="#3F6B34" transform="rotate(30 9 -62)"/></g>
</g>
</svg>
