<svg xmlns="http://www.w3.org/2000/svg" viewBox="0 0 600 450" width="600" height="450" role="img" aria-labelledby="t">
<title id="t">Pastrami on rye with pickle</title>
<rect width="600" height="450" fill="#F6E6C8"/>
<circle cx="300" cy="215" r="205" fill="#FFF4DC" opacity=".55"/>
<circle cx="70" cy="70" r="5" fill="#FFF4DC" opacity=".7"/><circle cx="540" cy="90" r="7" fill="#FFF4DC" opacity=".7"/><circle cx="520" cy="380" r="5" fill="#FFF4DC" opacity=".7"/><circle cx="60" cy="370" r="6" fill="#FFF4DC" opacity=".7"/>
<g transform="translate(300 285) scale(1.16) translate(-300 -285)">
<ellipse cx="300" cy="308" rx="236" ry="82" fill="#2E2A27" opacity=".12"/><ellipse cx="300" cy="292" rx="230" ry="82" fill="#FFF9EC" /><ellipse cx="300" cy="296" rx="192" ry="56" fill="#F3E8D2" /><ellipse cx="300" cy="292" rx="230" ry="82" fill="none" stroke="#EBDDC3" stroke-width="3"/><path d="M130 300 Q130 240 300 238 Q470 240 470 300 Q470 335 300 338 Q130 335 130 300 Z" fill="#9A6232" /><path d="M142 296 Q144 252 300 250 Q456 252 458 296 Q452 322 300 324 Q148 322 142 296 Z" fill="#E5C28B" /><path d="M135 262 Q150 240 190 248 Q230 232 270 248 Q320 230 370 248 Q420 234 465 262 Q430 284 380 276 Q320 288 260 276 Q190 286 135 262 Z" fill="#8B3A34" transform="translate(0 10)"/><path d="M135 268 Q150 246 190 254 Q230 238 270 254 Q320 236 370 254 Q420 240 465 268 Q430 290 380 282 Q320 294 260 282 Q190 292 135 268 Z" fill="#A5493F" transform="translate(0 -8)"/><path d="M135 274 Q150 252 190 260 Q230 244 270 260 Q320 242 370 260 Q420 246 465 274 Q430 296 380 288 Q320 300 260 288 Q190 298 135 274 Z" fill="#8B3A34" transform="translate(0 -26)"/><circle cx="180" cy="245" r="2.5" fill="#2E2A27" opacity="0.8"/><circle cx="240" cy="235" r="2.5" fill="#2E2A27" opacity="0.8"/><circle cx="300" cy="245" r="2.5" fill="#2E2A27" opacity="0.8"/><circle cx="360" cy="233" r="2.5" fill="#2E2A27" opacity="0.8"/><circle cx="420" cy="243" r="2.5" fill="#2E2A27" opacity="0.8"/><circle cx="270" cy="258" r="2.5" fill="#2E2A27" opacity="0.8"/><circle cx="340" cy="256" r="2.5" fill="#2E2A27" opacity="0.8"/><path d="M120 214 Q300 130 480 214 Q480 240 460 240 Q300 190 140 240 Q120 240 120 214 Z" fill="#B9722F" /><path d="M138 208 Q300 146 462 208 Q300 168 138 208 Z" fill="#D99A56" /><circle cx="220" cy="190" r="5" fill="#F3E1B8" opacity="0.6"/><circle cx="300" cy="175" r="5" fill="#F3E1B8" opacity="0.6"/><circle cx="380" cy="190" r="5" fill="#F3E1B8" opacity="0.6"/><g transform="translate(130 345) rotate(-12)"><rect x="-40" y="-16" width="80" height="32" rx="16" fill="#6F9A3F" /><rect x="-34" y="-12" width="34" height="10" rx="5" fill="#9CC268" /><circle cx="-10" cy="4" r="2" fill="#3F6B34" opacity="1"/><circle cx="10" cy="-4" r="2" fill="#3F6B34" opacity="1"/><circle cx="20" cy="6" r="2" fill="#3F6B34" opacity="1"/><circle cx="-24" cy="6" r="2" fill="#3F6B34" opacity="1"/></g>
</g>
</svg>
