<svg xmlns="http://www.w3.org/2000/svg" viewBox="0 0 600 450" width="600" height="450" role="img" aria-labelledby="t">
<title id="t">Sliced brisket</title>
<rect width="600" height="450" fill="#F6E6C8"/>
<circle cx="300" cy="215" r="205" fill="#FFF4DC" opacity=".55"/>
<circle cx="70" cy="70" r="5" fill="#FFF4DC" opacity=".7"/><circle cx="540" cy="90" r="7" fill="#FFF4DC" opacity=".7"/><circle cx="520" cy="380" r="5" fill="#FFF4DC" opacity=".7"/><circle cx="60" cy="370" r="6" fill="#FFF4DC" opacity=".7"/>
<g transform="translate(300 285) scale(1.16) translate(-300 -285)">
<ellipse cx="300" cy="381" rx="262.0" ry="16" fill="#2E2A27" opacity=".13"/><path d="M80 205 L520 205 L550 345 L50 345 Z" fill="#CF9F66" /><path d="M110 235 L100 331" fill="none" stroke="#E2B97F" stroke-width="4" stroke-linecap="round" stroke-linejoin="round" opacity=".6"/><path d="M170 235 L162 331" fill="none" stroke="#E2B97F" stroke-width="4" stroke-linecap="round" stroke-linejoin="round" opacity=".6"/><path d="M230 235 L224 331" fill="none" stroke="#E2B97F" stroke-width="4" stroke-linecap="round" stroke-linejoin="round" opacity=".6"/><path d="M290 235 L286 331" fill="none" stroke="#E2B97F" stroke-width="4" stroke-linecap="round" stroke-linejoin="round" opacity=".6"/><path d="M350 235 L348 331" fill="none" stroke="#E2B97F" stroke-width="4" stroke-linecap="round" stroke-linejoin="round" opacity=".6"/><path d="M410 235 L410 331" fill="none" stroke="#E2B97F" stroke-width="4" stroke-linecap="round" stroke-linejoin="round" opacity=".6"/><path d="M470 235 L472 331" fill="none" stroke="#E2B97F" stroke-width="4" stroke-linecap="round" stroke-linejoin="round" opacity=".6"/><path d="M50 345 L550 345 L550 367 Q550 373 542 373 L58 373 Q50 373 50 367 Z" fill="#B1814A" /><g transform="translate(120 262) rotate(-10)"><path d="M-34 -30 Q-44 20 -26 50 Q0 62 30 50 Q46 10 34 -30 Q0 -44 -34 -30 Z" fill="#5A3320" /><path d="M-26 -22 Q-34 18 -18 42 Q2 52 24 42 Q36 8 26 -22 Q0 -34 -26 -22 Z" fill="#C9726A" /><path d="M-14 -14 Q-18 14 -8 30 Q8 36 16 24 Q20 0 12 -14 Q-2 -20 -14 -14 Z" fill="#DE8E83" /><path d="M-24 -10 Q0 -2 22 -12" fill="none" stroke="#F6E7D2" stroke-width="3" stroke-linecap="round" stroke-linejoin="round" opacity=".7"/></g><g transform="translate(182 274) rotate(-5)"><path d="M-34 -30 Q-44 20 -26 50 Q0 62 30 50 Q46 10 34 -30 Q0 -44 -34 -30 Z" fill="#5A3320" /><path d="M-26 -22 Q-34 18 -18 42 Q2 52 24 42 Q36 8 26 -22 Q0 -34 -26 -22 Z" fill="#C9726A" /><path d="M-14 -14 Q-18 14 -8 30 Q8 36 16 24 Q20 0 12 -14 Q-2 -20 -14 -14 Z" fill="#DE8E83" /><path d="M-24 -10 Q0 -2 22 -12" fill="none" stroke="#F6E7D2" stroke-width="3" stroke-linecap="round" stroke-linejoin="round" opacity=".7"/></g><g transform="translate(244 262) rotate(0)"><path d="M-34 -30 Q-44 20 -26 50 Q0 62 30 50 Q46 10 34 -30 Q0 -44 -34 -30 Z" fill="#5A3320" /><path d="M-26 -22 Q-34 18 -18 42 Q2 52 24 42 Q36 8 26 -22 Q0 -34 -26 -22 Z" fill="#C9726A" /><path d="M-14 -14 Q-18 14 -8 30 Q8 36 16 24 Q20 0 12 -14 Q-2 -20 -14 -14 Z" fill="#DE8E83" /><path d="M-24 -10 Q0 -2 22 -12" fill="none" stroke="#F6E7D2" stroke-width="3" stroke-linecap="round" stroke-linejoin="round" opacity=".7"/></g><g transform="translate(306 274) rotate(5)"><path d="M-34 -30 Q-44 20 -26 50 Q0 62 30 50 Q46 10 34 -30 Q0 -44 -34 -30 Z" fill="#5A3320" /><path d="M-26 -22 Q-34 18 -18 42 Q2 52 24 42 Q36 8 26 -22 Q0 -34 -26 -22 Z" fill="#C9726A" /><path d="M-14 -14 Q-18 14 -8 30 Q8 36 16 24 Q20 0 12 -14 Q-2 -20 -14 -14 Z" fill="#DE8E83" /><path d="M-24 -10 Q0 -2 22 -12" fill="none" stroke="#F6E7D2" stroke-width="3" stroke-linecap="round" stroke-linejoin="round" opacity=".7"/></g><g transform="translate(368 262) rotate(10)"><path d="M-34 -30 Q-44 20 -26 50 Q0 62 30 50 Q46 10 34 -30 Q0 -44 -34 -30 Z" fill="#5A3320" /><path d="M-26 -22 Q-34 18 -18 42 Q2 52 24 42 Q36 8 26 -22 Q0 -34 -26 -22 Z" fill="#C9726A" /><path d="M-14 -14 Q-18 14 -8 30 Q8 36 16 24 Q20 0 12 -14 Q-2 -20 -14 -14 Z" fill="#DE8E83" /><path d="M-24 -10 Q0 -2 22 -12" fill="none" stroke="#F6E7D2" stroke-width="3" stroke-linecap="round" stroke-linejoin="round" opacity=".7"/></g><path d="M180 330 Q300 310 420 330 Q300 352 180 330 Z" fill="#7B4A2C" opacity=".5"/><g transform="translate(505 325) rotate(25) scale(0.8)"><path d="M0 8 L0 -66" fill="none" stroke="#3F6B34" stroke-width="3" stroke-linecap="round" stroke-linejoin="round" /><ellipse cx="-9" cy="0" rx="11" ry="4.5" fill="#5C8A47" transform="rotate(-30 -9 0)"/><ellipse cx="9" cy="-6" rx="11" ry="4.5" fill="#3F6B34" transform="rotate(30 9 -6)"/><ellipse cx="-9" cy="-14" rx="11" ry="4.5" fill="#5C8A47" transform="rotate(-30 -9 -14)"/><ellipse cx="9" cy="-20" rx="11" ry="4.5" fill="#3F6B34" transform="rotate(30 9 -20)"/><ellipse cx="-9" cy="-28" rx="11" ry="4.5" fill="#5C8A47" transform="rotate(-30 -9 -28)"/><ellipse cx="9" cy="-34" rx="11" ry="4.5" fill="#3F6B34" transform="rotate(30 9 -34)"/><ellipse cx="-9" cy="-42" rx="11" ry="4.5" fill="#5C8A47" transform="rotate(-30 -9 -42)"/><ellipse cx="9" cy="-48" rx="11" ry="4.5" fill="#3F6B34" transform="rotate(30 9 -48)"/><ellipse cx="-9" cy="-56" rx="11" ry="4.5" fill="#5C8A47" transform="rotate(-30 -9 -56)"/><ellipse cx="9" cy="-62" rx="11" ry="4.5" fill="#3F6B34" transform="rotate(30 9 -62)"/></g><g transform="translate(100 335) rotate(-20) scale(0.7)"><path d="M0 8 L0 -66" fill="none" stroke="#3F6B34" stroke-width="3" stroke-linecap="round" stroke-linejoin="round" /><ellipse cx="-9" cy="0" rx="11" ry="4.5" fill="#5C8A47" transform="rotate(-30 -9 0)"/><ellipse cx="9" cy="-6" rx="11" ry="4.5" fill="#3F6B34" transform="rotate(30 9 -6)"/><ellipse cx="-9" cy="-14" rx="11" ry="4.5" fill="#5C8A47" transform="rotate(-30 -9 -14)"/><ellipse cx="9" cy="-20" rx="11" ry="4.5" fill="#3F6B34" transform="rotate(30 9 -20)"/><ellipse cx="-9" cy="-28" rx="11" ry="4.5" fill="#5C8A47" transform="rotate(-30 -9 -28)"/><ellipse cx="9" cy="-34" rx="11" ry="4.5" fill="#3F6B34" transform="rotate(30 9 -34)"/><ellipse cx="-9" cy="-42" rx="11" ry="4.5" fill="#5C8A47" transform="rotate(-30 -9 -42)"/><ellipse cx="9" cy="-48" rx="11" ry="4.5" fill="#3F6B34" transform="rotate(30 9 -48)"/><ellipse cx="-9" cy="-56" rx="11" ry="4.5" fill="#5C8A47" transform="rotate(-30 -9 -56)"/><ellipse cx="9" cy="-62" rx="11" ry="4.5" fill="#3F6B34" transform="rotate(30 9 -62)"/></g>
</g>
</svg>
