<svg xmlns="http://www.w3.org/2000/svg" viewBox="0 0 600 450" width="600" height="450" role="img" aria-labelledby="t">
<title id="t">Golden chicken schnitzel with lemon</title>
<rect width="600" height="450" fill="#F6E6C8"/>
<circle cx="300" cy="215" r="205" fill="#FFF4DC" opacity=".55"/>
<circle cx="70" cy="70" r="5" fill="#FFF4DC" opacity=".7"/><circle cx="540" cy="90" r="7" fill="#FFF4DC" opacity=".7"/><circle cx="520" cy="380" r="5" fill="#FFF4DC" opacity=".7"/><circle cx="60" cy="370" r="6" fill="#FFF4DC" opacity=".7"/>
<g transform="translate(300 285) scale(1.16) translate(-300 -285)">
<ellipse cx="300" cy="308" rx="236" ry="82" fill="#2E2A27" opacity=".12"/><ellipse cx="300" cy="292" rx="230" ry="82" fill="#FFF9EC" /><ellipse cx="300" cy="296" rx="192" ry="56" fill="#F3E8D2" /><ellipse cx="300" cy="292" rx="230" ry="82" fill="none" stroke="#EBDDC3" stroke-width="3"/><g transform="translate(250 285) rotate(-8)"><path d="M-110 10 Q-120 -50 -50 -60 Q30 -78 100 -48 Q132 -24 108 28 Q70 62 0 58 Q-96 64 -110 10 Z" fill="#A5611F" /><g transform="scale(.93)"><path d="M-110 10 Q-120 -50 -50 -60 Q30 -78 100 -48 Q132 -24 108 28 Q70 62 0 58 Q-96 64 -110 10 Z" fill="#D99A2B" /></g><g transform="translate(-6 -6) scale(.74 .66)"><path d="M-110 10 Q-120 -50 -50 -60 Q30 -78 100 -48 Q132 -24 108 28 Q70 62 0 58 Q-96 64 -110 10 Z" fill="#EFBE5A" opacity=".9"/></g><circle cx="-60" cy="-10" r="5" fill="#E5A33A" opacity="0.9"/><circle cx="-20" cy="14" r="5" fill="#E5A33A" opacity="0.9"/><circle cx="30" cy="-20" r="5" fill="#E5A33A" opacity="0.9"/><circle cx="60" cy="18" r="5" fill="#E5A33A" opacity="0.9"/><circle cx="0" cy="-34" r="5" fill="#E5A33A" opacity="0.9"/><circle cx="-80" cy="20" r="5" fill="#E5A33A" opacity="0.9"/><circle cx="-40" cy="-30" r="3" fill="#FFE39A" opacity="1"/><circle cx="40" cy="0" r="3" fill="#FFE39A" opacity="1"/><circle cx="-10" cy="30" r="3" fill="#FFE39A" opacity="1"/></g><g transform="translate(360 262) rotate(8)"><path d="M-110 10 Q-120 -50 -50 -60 Q30 -78 100 -48 Q132 -24 108 28 Q70 62 0 58 Q-96 64 -110 10 Z" fill="#A5611F" /><g transform="scale(.93)"><path d="M-110 10 Q-120 -50 -50 -60 Q30 -78 100 -48 Q132 -24 108 28 Q70 62 0 58 Q-96 64 -110 10 Z" fill="#D99A2B" /></g><g transform="translate(-6 -6) scale(.74 .66)"><path d="M-110 10 Q-120 -50 -50 -60 Q30 -78 100 -48 Q132 -24 108 28 Q70 62 0 58 Q-96 64 -110 10 Z" fill="#EFBE5A" opacity=".9"/></g><circle cx="-60" cy="-10" r="5" fill="#E5A33A" opacity="0.9"/><circle cx="-20" cy="14" r="5" fill="#E5A33A" opacity="0.9"/><circle cx="30" cy="-20" r="5" fill="#E5A33A" opacity="0.9"/><circle cx="60" cy="18" r="5" fill="#E5A33A" opacity="0.9"/><circle cx="0" cy="-34" r="5" fill="#E5A33A" opacity="0.9"/><circle cx="-80" cy="20" r="5" fill="#E5A33A" opacity="0.9"/><circle cx="-40" cy="-30" r="3" fill="#FFE39A" opacity="1"/><circle cx="40" cy="0" r="3" fill="#FFE39A" opacity="1"/><circle cx="-10" cy="30" r="3" fill="#FFE39A" opacity="1"/></g><g transform="translate(470 335) rotate(15) scale(0.8)"><path d="M-56 0 A56 56 0 0 0 56 0 Z" fill="#F2C230" /><path d="M-46 0 A46 46 0 0 0 46 0 Z" fill="#FBE27A" /><path d="M0 0 L47.0 17.1" fill="none" stroke="#FFF3B8" stroke-width="3" stroke-linecap="round" stroke-linejoin="round" /><path d="M0 0 L28.7 41.0" fill="none" stroke="#FFF3B8" stroke-width="3" stroke-linecap="round" stroke-linejoin="round" /><path d="M0 0 L0.0 50.0" fill="none" stroke="#FFF3B8" stroke-width="3" stroke-linecap="round" stroke-linejoin="round" /><path d="M0 0 L-28.7 41.0" fill="none" stroke="#FFF3B8" stroke-width="3" stroke-linecap="round" stroke-linejoin="round" /><path d="M0 0 L-47.0 17.1" fill="none" stroke="#FFF3B8" stroke-width="3" stroke-linecap="round" stroke-linejoin="round" /></g><g transform="translate(110 330) rotate(-25) scale(0.9)"><path d="M0 8 L0 -66" fill="none" stroke="#3F6B34" stroke-width="3" stroke-linecap="round" stroke-linejoin="round" /><ellipse cx="-9" cy="0" rx="11" ry="4.5" fill="#5C8A47" transform="rotate(-30 -9 0)"/><ellipse cx="9" cy="-6" rx="11" ry="4.5" fill="#3F6B34" transform="rotate(30 9 -6)"/><ellipse cx="-9" cy="-14" rx="11" ry="4.5" fill="#5C8A47" transform="rotate(-30 -9 -14)"/><ellipse cx="9" cy="-20" rx="11" ry="4.5" fill="#3F6B34" transform="rotate(30 9 -20)"/><ellipse cx="-9" cy="-28" rx="11" ry="4.5" fill="#5C8A47" transform="rotate(-30 -9 -28)"/><ellipse cx="9" cy="-34" rx="11" ry="4.5" fill="#3F6B34" transform="rotate(30 9 -34)"/><ellipse cx="-9" cy="-42" rx="11" ry="4.5" fill="#5C8A47" transform="rotate(-30 -9 -42)"/><ellipse cx="9" cy="-48" rx="11" ry="4.5" fill="#3F6B34" transform="rotate(30 9 -48)"/><ellipse cx="-9" cy="-56" rx="11" ry="4.5" fill="#5C8A47" transform="rotate(-30 -9 -56)"/><ellipse cx="9" cy="-62" rx="11" ry="4.5" fill="#3F6B34" transform="rotate(30 9 -62)"/></g><g transform="translate(150 345) rotate(10) scale(0.6)"><path d="M0 8 L0 -66" fill="none" stroke="#3F6B34" stroke-width="3" stroke-linecap="round" stroke-linejoin="round" /><ellipse cx="-9" cy="0" rx="11" ry="4.5" fill="#5C8A47" transform="rotate(-30 -9 0)"/><ellipse cx="9" cy="-6" rx="11" ry="4.5" fill="#3F6B34" transform="rotate(30 9 -6)"/><ellipse cx="-9" cy="-14" rx="11" ry="4.5" fill="#5C8A47" transform="rotate(-30 -9 -14)"/><ellipse cx="9" cy="-20" rx="11" ry="4.5" fill="#3F6B34" transform="rotate(30 9 -20)"/><ellipse cx="-9" cy="-28" rx="11" ry="4.5" fill="#5C8A47" transform="rotate(-30 -9 -28)"/><ellipse cx="9" cy="-34" rx="11" ry="4.5" fill="#3F6B34" transform="rotate(30 9 -34)"/><ellipse cx="-9" cy="-42" rx="11" ry="4.5" fill="#5C8A47" transform="rotate(-30 -9 -42)"/><ellipse cx="9" cy="-48" rx="11" ry="4.5" fill="#3F6B34" transform="rotate(30 9 -48)"/><ellipse cx="-9" cy="-56" rx="11" ry="4.5" fill="#5C8A47" transform="rotate(-30 -9 -56)"/><ellipse cx="9" cy="-62" rx="11" ry="4.5" fill="#3F6B34" transform="rotate(30 9 -62)"/></g>
</g>
</svg>
